<svg width="256" height="256" viewBox="0 0 256 256" fill="none" xmlns="http://www.w3.org/2000/svg">
<path fill-rule="evenodd" clip-rule="evenodd" d="M128 256C198.692 256 256 198.692 256 128C256 57.3076 198.692 0 128 0C57.3076 0 0 57.3076 0 128C0 198.692 57.3076 256 128 256ZM117.143 128.429H106.429V117.714V107V96.2857H117.143H127.857H138.571V107V117.714V128.429H127.857H117.143ZM106.429 149.857H117.143H127.857H138.571V160.571V171.286V182H149.286H160V171.286V160.571V149.857V139.143H149.286V128.429H160V117.714V107V96.2857V85.5714H149.286V74.8571H138.571H127.857H117.143H106.429H95.7143H85V85.5714V96.2857V107V117.714V128.429V139.143V149.857V160.571V171.286V182H95.7143H106.429V171.286V160.571V149.857Z" fill="#409EFF"/>
</svg>
